<?xml version="1.0" encoding="UTF-8" standalone="no"?>
<!DOCTYPE svg PUBLIC "-//W3C//DTD SVG 1.1//EN"
 "http://www.w3.org/Graphics/SVG/1.1/DTD/svg11.dtd">
<!-- Generated by graphviz version 2.47.0 (20210316.0004)
 -->
<!-- Title: dependencies Pages: 1 -->
<svg width="2100pt" height="211pt"
 viewBox="0.00 0.00 2100.00 211.00" xmlns="http://www.w3.org/2000/svg" xmlns:xlink="http://www.w3.org/1999/xlink">
<g id="graph0" class="graph" transform="scale(1 1) rotate(0) translate(4 207)">
<title>dependencies</title>
<polygon fill="white" stroke="transparent" points="-4,4 -4,-207 2096,-207 2096,4 -4,4"/>
<text text-anchor="start" x="1025.01" y="-42.4" font-family="Times-12" font-weight="bold" font-size="14.00">Legend</text>
<polygon fill="#ffffb3" stroke="transparent" points="812,-10 812,-30 832,-30 832,-10 812,-10"/>
<text text-anchor="start" x="835.63" y="-15.4" font-family="Times-12" font-size="14.00"> &#160;Declarations</text>
<polygon fill="#8dd3c7" stroke="transparent" points="925,-10 925,-30 945,-30 945,-10 925,-10"/>
<text text-anchor="start" x="948.73" y="-15.4" font-family="Times-12" font-size="14.00"> &#160;Module</text>
<polygon fill="#80b1d3" stroke="transparent" points="1011,-10 1011,-30 1031,-30 1031,-10 1011,-10"/>
<text text-anchor="start" x="1034.78" y="-15.4" font-family="Times-12" font-size="14.00"> &#160;Bootstrap</text>
<polygon fill="#fdb462" stroke="transparent" points="1108,-10 1108,-30 1128,-30 1128,-10 1108,-10"/>
<text text-anchor="start" x="1131.67" y="-15.4" font-family="Times-12" font-size="14.00"> &#160;Providers</text>
<polygon fill="#fb8072" stroke="transparent" points="1204,-10 1204,-30 1224,-30 1224,-10 1204,-10"/>
<text text-anchor="start" x="1227.73" y="-15.4" font-family="Times-12" font-size="14.00"> &#160;Exports</text>
<g id="clust1" class="cluster">
<title>cluster_UserModule</title>
<polygon fill="none" stroke="black" stroke-dasharray="1,5" points="8,-70 8,-195 2084,-195 2084,-70 8,-70"/>
</g>
<g id="clust6" class="cluster">
<title>cluster_UserModule_providers</title>
<polygon fill="none" stroke="black" points="150,-78 150,-130 2076,-130 2076,-78 150,-78"/>
</g>
<g id="clust3" class="cluster">
<title>cluster_UserModule_imports</title>
<polygon fill="none" stroke="black" points="16,-78 16,-130 142,-130 142,-78 16,-78"/>
</g>
<!-- DatabaseModule -->
<g id="node1" class="node">
<title>DatabaseModule</title>
<polygon fill="#8dd3c7" stroke="black" points="134.35,-122 131.35,-126 110.35,-126 107.35,-122 23.65,-122 23.65,-86 134.35,-86 134.35,-122"/>
<text text-anchor="middle" x="79" y="-99.8" font-family="Times,serif" font-size="14.00">DatabaseModule</text>
</g>
<!-- UserModule -->
<g id="node2" class="node">
<title>UserModule</title>
<polygon fill="#8dd3c7" stroke="black" points="1121.98,-187 1118.98,-191 1097.98,-191 1094.98,-187 1036.02,-187 1036.02,-151 1121.98,-151 1121.98,-187"/>
<text text-anchor="middle" x="1079" y="-164.8" font-family="Times,serif" font-size="14.00">UserModule</text>
</g>
<!-- DatabaseModule&#45;&gt;UserModule -->
<g id="edge1" class="edge">
<title>DatabaseModule&#45;&gt;UserModule</title>
<path fill="none" stroke="black" d="M79,-122.01C79,-144.49 79,-180 79,-180 79,-180 1025.71,-180 1025.71,-180"/>
<polygon fill="black" stroke="black" points="1025.71,-183.5 1035.71,-180 1025.71,-176.5 1025.71,-183.5"/>
</g>
<!-- CreateUserConcreteRepository -->
<g id="node3" class="node">
<title>CreateUserConcreteRepository</title>
<ellipse fill="#fdb462" stroke="black" cx="1936" cy="-104" rx="131.9" ry="18"/>
<text text-anchor="middle" x="1936" y="-99.8" font-family="Times,serif" font-size="14.00">CreateUserConcreteRepository</text>
</g>
<!-- CreateUserConcreteRepository&#45;&gt;UserModule -->
<g id="edge2" class="edge">
<title>CreateUserConcreteRepository&#45;&gt;UserModule</title>
<path fill="none" stroke="black" d="M1936,-122.01C1936,-144.49 1936,-180 1936,-180 1936,-180 1132.09,-180 1132.09,-180"/>
<polygon fill="black" stroke="black" points="1132.09,-176.5 1122.09,-180 1132.09,-183.5 1132.09,-176.5"/>
</g>
<!-- CreateUserUseCase -->
<g id="node4" class="node">
<title>CreateUserUseCase</title>
<ellipse fill="#fdb462" stroke="black" cx="1698" cy="-104" rx="88.49" ry="18"/>
<text text-anchor="middle" x="1698" y="-99.8" font-family="Times,serif" font-size="14.00">CreateUserUseCase</text>
</g>
<!-- CreateUserUseCase&#45;&gt;UserModule -->
<g id="edge3" class="edge">
<title>CreateUserUseCase&#45;&gt;UserModule</title>
<path fill="none" stroke="black" d="M1698,-122.13C1698,-142.57 1698,-173 1698,-173 1698,-173 1132.04,-173 1132.04,-173"/>
<polygon fill="black" stroke="black" points="1132.04,-169.5 1122.04,-173 1132.04,-176.5 1132.04,-169.5"/>
</g>
<!-- DeleteUserUseCase -->
<g id="node5" class="node">
<title>DeleteUserUseCase</title>
<ellipse fill="#fdb462" stroke="black" cx="1504" cy="-104" rx="88.49" ry="18"/>
<text text-anchor="middle" x="1504" y="-99.8" font-family="Times,serif" font-size="14.00">DeleteUserUseCase</text>
</g>
<!-- DeleteUserUseCase&#45;&gt;UserModule -->
<g id="edge4" class="edge">
<title>DeleteUserUseCase&#45;&gt;UserModule</title>
<path fill="none" stroke="black" d="M1504,-122.27C1504,-140.56 1504,-166 1504,-166 1504,-166 1132.09,-166 1132.09,-166"/>
<polygon fill="black" stroke="black" points="1132.09,-162.5 1122.09,-166 1132.09,-169.5 1132.09,-162.5"/>
</g>
<!-- ListAllUsersUseCase -->
<g id="node6" class="node">
<title>ListAllUsersUseCase</title>
<ellipse fill="#fdb462" stroke="black" cx="1304" cy="-104" rx="94.33" ry="18"/>
<text text-anchor="middle" x="1304" y="-99.8" font-family="Times,serif" font-size="14.00">ListAllUsersUseCase</text>
</g>
<!-- ListAllUsersUseCase&#45;&gt;UserModule -->
<g id="edge5" class="edge">
<title>ListAllUsersUseCase&#45;&gt;UserModule</title>
<path fill="none" stroke="black" d="M1304,-122.01C1304,-138.05 1304,-159 1304,-159 1304,-159 1132.12,-159 1132.12,-159"/>
<polygon fill="black" stroke="black" points="1132.12,-155.5 1122.12,-159 1132.12,-162.5 1132.12,-155.5"/>
</g>
<!-- ListUserByEmailUseCase -->
<g id="node7" class="node">
<title>ListUserByEmailUseCase</title>
<ellipse fill="#fdb462" stroke="black" cx="1079" cy="-104" rx="112.31" ry="18"/>
<text text-anchor="middle" x="1079" y="-99.8" font-family="Times,serif" font-size="14.00">ListUserByEmailUseCase</text>
</g>
<!-- ListUserByEmailUseCase&#45;&gt;UserModule -->
<g id="edge6" class="edge">
<title>ListUserByEmailUseCase&#45;&gt;UserModule</title>
<path fill="none" stroke="black" d="M1079,-122.11C1079,-122.11 1079,-140.99 1079,-140.99"/>
<polygon fill="black" stroke="black" points="1075.5,-140.99 1079,-150.99 1082.5,-140.99 1075.5,-140.99"/>
</g>
<!-- ListUserByIdUseCase -->
<g id="node8" class="node">
<title>ListUserByIdUseCase</title>
<ellipse fill="#fdb462" stroke="black" cx="851" cy="-104" rx="97.26" ry="18"/>
<text text-anchor="middle" x="851" y="-99.8" font-family="Times,serif" font-size="14.00">ListUserByIdUseCase</text>
</g>
<!-- ListUserByIdUseCase&#45;&gt;UserModule -->
<g id="edge7" class="edge">
<title>ListUserByIdUseCase&#45;&gt;UserModule</title>
<path fill="none" stroke="black" d="M851,-122.01C851,-138.05 851,-159 851,-159 851,-159 1025.85,-159 1025.85,-159"/>
<polygon fill="black" stroke="black" points="1025.85,-162.5 1035.85,-159 1025.85,-155.5 1025.85,-162.5"/>
</g>
<!-- ListUserConcreteRepository -->
<g id="node9" class="node">
<title>ListUserConcreteRepository</title>
<ellipse fill="#fdb462" stroke="black" cx="614" cy="-104" rx="121.54" ry="18"/>
<text text-anchor="middle" x="614" y="-99.8" font-family="Times,serif" font-size="14.00">ListUserConcreteRepository</text>
</g>
<!-- ListUserConcreteRepository&#45;&gt;UserModule -->
<g id="edge8" class="edge">
<title>ListUserConcreteRepository&#45;&gt;UserModule</title>
<path fill="none" stroke="black" d="M614,-122.27C614,-140.56 614,-166 614,-166 614,-166 1025.67,-166 1025.67,-166"/>
<polygon fill="black" stroke="black" points="1025.67,-169.5 1035.67,-166 1025.67,-162.5 1025.67,-169.5"/>
</g>
<!-- UpdateAndDeleteConcreteRepository -->
<g id="node10" class="node">
<title>UpdateAndDeleteConcreteRepository</title>
<ellipse fill="#fdb462" stroke="black" cx="316" cy="-104" rx="157.97" ry="18"/>
<text text-anchor="middle" x="316" y="-99.8" font-family="Times,serif" font-size="14.00">UpdateAndDeleteConcreteRepository</text>
</g>
<!-- UpdateAndDeleteConcreteRepository&#45;&gt;UserModule -->
<g id="edge9" class="edge">
<title>UpdateAndDeleteConcreteRepository&#45;&gt;UserModule</title>
<path fill="none" stroke="black" d="M316,-122.13C316,-142.57 316,-173 316,-173 316,-173 1025.79,-173 1025.79,-173"/>
<polygon fill="black" stroke="black" points="1025.79,-176.5 1035.79,-173 1025.79,-169.5 1025.79,-176.5"/>
</g>
</g>
</svg>
