<?xml version="1.0" encoding="UTF-8" standalone="no"?>
<!DOCTYPE svg PUBLIC "-//W3C//DTD SVG 1.1//EN"
 "http://www.w3.org/Graphics/SVG/1.1/DTD/svg11.dtd">
<!-- Generated by graphviz version 2.47.0 (20210316.0004)
 -->
<!-- Title: dependencies Pages: 1 -->
<svg width="504pt" height="211pt"
 viewBox="0.00 0.00 504.00 211.00" xmlns="http://www.w3.org/2000/svg" xmlns:xlink="http://www.w3.org/1999/xlink">
<g id="graph0" class="graph" transform="scale(1 1) rotate(0) translate(4 207)">
<title>dependencies</title>
<polygon fill="white" stroke="transparent" points="-4,4 -4,-207 500,-207 500,4 -4,4"/>
<text text-anchor="start" x="227.01" y="-42.4" font-family="Times-12" font-weight="bold" font-size="14.00">Legend</text>
<polygon fill="#ffffb3" stroke="transparent" points="14,-10 14,-30 34,-30 34,-10 14,-10"/>
<text text-anchor="start" x="37.63" y="-15.4" font-family="Times-12" font-size="14.00"> &#160;Declarations</text>
<polygon fill="#8dd3c7" stroke="transparent" points="127,-10 127,-30 147,-30 147,-10 127,-10"/>
<text text-anchor="start" x="150.73" y="-15.4" font-family="Times-12" font-size="14.00"> &#160;Module</text>
<polygon fill="#80b1d3" stroke="transparent" points="213,-10 213,-30 233,-30 233,-10 213,-10"/>
<text text-anchor="start" x="236.78" y="-15.4" font-family="Times-12" font-size="14.00"> &#160;Bootstrap</text>
<polygon fill="#fdb462" stroke="transparent" points="310,-10 310,-30 330,-30 330,-10 310,-10"/>
<text text-anchor="start" x="333.67" y="-15.4" font-family="Times-12" font-size="14.00"> &#160;Providers</text>
<polygon fill="#fb8072" stroke="transparent" points="406,-10 406,-30 426,-30 426,-10 406,-10"/>
<text text-anchor="start" x="429.73" y="-15.4" font-family="Times-12" font-size="14.00"> &#160;Exports</text>
<g id="clust1" class="cluster">
<title>cluster_PatientModule</title>
<polygon fill="none" stroke="black" stroke-dasharray="1,5" points="68,-70 68,-195 428,-195 428,-70 68,-70"/>
</g>
<g id="clust6" class="cluster">
<title>cluster_PatientModule_providers</title>
<polygon fill="none" stroke="black" points="210,-78 210,-130 420,-130 420,-78 210,-78"/>
</g>
<g id="clust3" class="cluster">
<title>cluster_PatientModule_imports</title>
<polygon fill="none" stroke="black" points="76,-78 76,-130 202,-130 202,-78 76,-78"/>
</g>
<!-- DatabaseModule -->
<g id="node1" class="node">
<title>DatabaseModule</title>
<polygon fill="#8dd3c7" stroke="black" points="194.35,-122 191.35,-126 170.35,-126 167.35,-122 83.65,-122 83.65,-86 194.35,-86 194.35,-122"/>
<text text-anchor="middle" x="139" y="-99.8" font-family="Times,serif" font-size="14.00">DatabaseModule</text>
</g>
<!-- PatientModule -->
<g id="node2" class="node">
<title>PatientModule</title>
<polygon fill="#8dd3c7" stroke="black" points="276.43,-187 273.43,-191 252.43,-191 249.43,-187 177.57,-187 177.57,-151 276.43,-151 276.43,-187"/>
<text text-anchor="middle" x="227" y="-164.8" font-family="Times,serif" font-size="14.00">PatientModule</text>
</g>
<!-- DatabaseModule&#45;&gt;PatientModule -->
<g id="edge1" class="edge">
<title>DatabaseModule&#45;&gt;PatientModule</title>
<path fill="none" stroke="black" d="M186.1,-122.11C186.1,-122.11 186.1,-140.99 186.1,-140.99"/>
<polygon fill="black" stroke="black" points="182.6,-140.99 186.1,-150.99 189.6,-140.99 182.6,-140.99"/>
</g>
<!-- CreatePatientUseCase -->
<g id="node3" class="node">
<title>CreatePatientUseCase</title>
<ellipse fill="#fdb462" stroke="black" cx="315" cy="-104" rx="96.68" ry="18"/>
<text text-anchor="middle" x="315" y="-99.8" font-family="Times,serif" font-size="14.00">CreatePatientUseCase</text>
</g>
<!-- CreatePatientUseCase&#45;&gt;PatientModule -->
<g id="edge2" class="edge">
<title>CreatePatientUseCase&#45;&gt;PatientModule</title>
<path fill="none" stroke="black" d="M247.19,-117.15C247.19,-117.15 247.19,-140.69 247.19,-140.69"/>
<polygon fill="black" stroke="black" points="243.69,-140.69 247.19,-150.69 250.69,-140.69 243.69,-140.69"/>
</g>
</g>
</svg>
