<?xml version="1.0" encoding="UTF-8" standalone="no"?>
<!DOCTYPE svg PUBLIC "-//W3C//DTD SVG 1.1//EN"
 "http://www.w3.org/Graphics/SVG/1.1/DTD/svg11.dtd">
<!-- Generated by graphviz version 2.47.0 (20210316.0004)
 -->
<!-- Title: dependencies Pages: 1 -->
<svg width="2446pt" height="211pt"
 viewBox="0.00 0.00 2446.00 211.00" xmlns="http://www.w3.org/2000/svg" xmlns:xlink="http://www.w3.org/1999/xlink">
<g id="graph0" class="graph" transform="scale(1 1) rotate(0) translate(4 207)">
<title>dependencies</title>
<polygon fill="white" stroke="transparent" points="-4,4 -4,-207 2442,-207 2442,4 -4,4"/>
<text text-anchor="start" x="1198.01" y="-42.4" font-family="Times-12" font-weight="bold" font-size="14.00">Legend</text>
<polygon fill="#ffffb3" stroke="transparent" points="985,-10 985,-30 1005,-30 1005,-10 985,-10"/>
<text text-anchor="start" x="1008.63" y="-15.4" font-family="Times-12" font-size="14.00"> &#160;Declarations</text>
<polygon fill="#8dd3c7" stroke="transparent" points="1098,-10 1098,-30 1118,-30 1118,-10 1098,-10"/>
<text text-anchor="start" x="1121.73" y="-15.4" font-family="Times-12" font-size="14.00"> &#160;Module</text>
<polygon fill="#80b1d3" stroke="transparent" points="1184,-10 1184,-30 1204,-30 1204,-10 1184,-10"/>
<text text-anchor="start" x="1207.78" y="-15.4" font-family="Times-12" font-size="14.00"> &#160;Bootstrap</text>
<polygon fill="#fdb462" stroke="transparent" points="1281,-10 1281,-30 1301,-30 1301,-10 1281,-10"/>
<text text-anchor="start" x="1304.67" y="-15.4" font-family="Times-12" font-size="14.00"> &#160;Providers</text>
<polygon fill="#fb8072" stroke="transparent" points="1377,-10 1377,-30 1397,-30 1397,-10 1377,-10"/>
<text text-anchor="start" x="1400.73" y="-15.4" font-family="Times-12" font-size="14.00"> &#160;Exports</text>
<g id="clust1" class="cluster">
<title>cluster_PatientModule</title>
<polygon fill="none" stroke="black" stroke-dasharray="1,5" points="8,-70 8,-195 2430,-195 2430,-70 8,-70"/>
</g>
<g id="clust3" class="cluster">
<title>cluster_PatientModule_imports</title>
<polygon fill="none" stroke="black" points="2296,-78 2296,-130 2422,-130 2422,-78 2296,-78"/>
</g>
<g id="clust6" class="cluster">
<title>cluster_PatientModule_providers</title>
<polygon fill="none" stroke="black" points="16,-78 16,-130 2288,-130 2288,-78 16,-78"/>
</g>
<!-- DatabaseModule -->
<g id="node1" class="node">
<title>DatabaseModule</title>
<polygon fill="#8dd3c7" stroke="black" points="2414.35,-122 2411.35,-126 2390.35,-126 2387.35,-122 2303.65,-122 2303.65,-86 2414.35,-86 2414.35,-122"/>
<text text-anchor="middle" x="2359" y="-99.8" font-family="Times,serif" font-size="14.00">DatabaseModule</text>
</g>
<!-- PatientModule -->
<g id="node2" class="node">
<title>PatientModule</title>
<polygon fill="#8dd3c7" stroke="black" points="1383.43,-187 1380.43,-191 1359.43,-191 1356.43,-187 1284.57,-187 1284.57,-151 1383.43,-151 1383.43,-187"/>
<text text-anchor="middle" x="1334" y="-164.8" font-family="Times,serif" font-size="14.00">PatientModule</text>
</g>
<!-- DatabaseModule&#45;&gt;PatientModule -->
<g id="edge1" class="edge">
<title>DatabaseModule&#45;&gt;PatientModule</title>
<path fill="none" stroke="black" d="M2359,-122.01C2359,-144.49 2359,-180 2359,-180 2359,-180 1393.44,-180 1393.44,-180"/>
<polygon fill="black" stroke="black" points="1393.44,-176.5 1383.44,-180 1393.44,-183.5 1393.44,-176.5"/>
</g>
<!-- CreatePatientConcreteRepository -->
<g id="node3" class="node">
<title>CreatePatientConcreteRepository</title>
<ellipse fill="#fdb462" stroke="black" cx="2140" cy="-104" rx="140.08" ry="18"/>
<text text-anchor="middle" x="2140" y="-99.8" font-family="Times,serif" font-size="14.00">CreatePatientConcreteRepository</text>
</g>
<!-- CreatePatientConcreteRepository&#45;&gt;PatientModule -->
<g id="edge2" class="edge">
<title>CreatePatientConcreteRepository&#45;&gt;PatientModule</title>
<path fill="none" stroke="black" d="M2140,-122.13C2140,-142.57 2140,-173 2140,-173 2140,-173 1393.51,-173 1393.51,-173"/>
<polygon fill="black" stroke="black" points="1393.51,-169.5 1383.51,-173 1393.51,-176.5 1393.51,-169.5"/>
</g>
<!-- CreatePatientUseCase -->
<g id="node4" class="node">
<title>CreatePatientUseCase</title>
<ellipse fill="#fdb462" stroke="black" cx="1885" cy="-104" rx="96.68" ry="18"/>
<text text-anchor="middle" x="1885" y="-99.8" font-family="Times,serif" font-size="14.00">CreatePatientUseCase</text>
</g>
<!-- CreatePatientUseCase&#45;&gt;PatientModule -->
<g id="edge3" class="edge">
<title>CreatePatientUseCase&#45;&gt;PatientModule</title>
<path fill="none" stroke="black" d="M1885,-122.27C1885,-140.56 1885,-166 1885,-166 1885,-166 1393.38,-166 1393.38,-166"/>
<polygon fill="black" stroke="black" points="1393.38,-162.5 1383.38,-166 1393.38,-169.5 1393.38,-162.5"/>
</g>
<!-- DeletePatientUseCase -->
<g id="node5" class="node">
<title>DeletePatientUseCase</title>
<ellipse fill="#fdb462" stroke="black" cx="1673" cy="-104" rx="96.68" ry="18"/>
<text text-anchor="middle" x="1673" y="-99.8" font-family="Times,serif" font-size="14.00">DeletePatientUseCase</text>
</g>
<!-- DeletePatientUseCase&#45;&gt;PatientModule -->
<g id="edge4" class="edge">
<title>DeletePatientUseCase&#45;&gt;PatientModule</title>
<path fill="none" stroke="black" d="M1673,-122.01C1673,-138.05 1673,-159 1673,-159 1673,-159 1393.29,-159 1393.29,-159"/>
<polygon fill="black" stroke="black" points="1393.29,-155.5 1383.29,-159 1393.29,-162.5 1393.29,-155.5"/>
</g>
<!-- ListAllPatientsUseCase -->
<g id="node6" class="node">
<title>ListAllPatientsUseCase</title>
<ellipse fill="#fdb462" stroke="black" cx="1455" cy="-104" rx="102.51" ry="18"/>
<text text-anchor="middle" x="1455" y="-99.8" font-family="Times,serif" font-size="14.00">ListAllPatientsUseCase</text>
</g>
<!-- ListAllPatientsUseCase&#45;&gt;PatientModule -->
<g id="edge5" class="edge">
<title>ListAllPatientsUseCase&#45;&gt;PatientModule</title>
<path fill="none" stroke="black" d="M1367.73,-113.59C1367.73,-113.59 1367.73,-140.75 1367.73,-140.75"/>
<polygon fill="black" stroke="black" points="1364.23,-140.75 1367.73,-150.75 1371.23,-140.75 1364.23,-140.75"/>
</g>
<!-- ListPatientByEmailUseCase -->
<g id="node7" class="node">
<title>ListPatientByEmailUseCase</title>
<ellipse fill="#fdb462" stroke="black" cx="1213" cy="-104" rx="120.99" ry="18"/>
<text text-anchor="middle" x="1213" y="-99.8" font-family="Times,serif" font-size="14.00">ListPatientByEmailUseCase</text>
</g>
<!-- ListPatientByEmailUseCase&#45;&gt;PatientModule -->
<g id="edge6" class="edge">
<title>ListPatientByEmailUseCase&#45;&gt;PatientModule</title>
<path fill="none" stroke="black" d="M1309.39,-115.03C1309.39,-115.03 1309.39,-140.78 1309.39,-140.78"/>
<polygon fill="black" stroke="black" points="1305.89,-140.78 1309.39,-150.78 1312.89,-140.78 1305.89,-140.78"/>
</g>
<!-- ListPatientByIdUseCase -->
<g id="node8" class="node">
<title>ListPatientByIdUseCase</title>
<ellipse fill="#fdb462" stroke="black" cx="968" cy="-104" rx="105.95" ry="18"/>
<text text-anchor="middle" x="968" y="-99.8" font-family="Times,serif" font-size="14.00">ListPatientByIdUseCase</text>
</g>
<!-- ListPatientByIdUseCase&#45;&gt;PatientModule -->
<g id="edge7" class="edge">
<title>ListPatientByIdUseCase&#45;&gt;PatientModule</title>
<path fill="none" stroke="black" d="M968,-122.01C968,-138.05 968,-159 968,-159 968,-159 1274.64,-159 1274.64,-159"/>
<polygon fill="black" stroke="black" points="1274.64,-162.5 1284.64,-159 1274.64,-155.5 1274.64,-162.5"/>
</g>
<!-- ListPatientsConcreteRepository -->
<g id="node9" class="node">
<title>ListPatientsConcreteRepository</title>
<ellipse fill="#fdb462" stroke="black" cx="710" cy="-104" rx="133.74" ry="18"/>
<text text-anchor="middle" x="710" y="-99.8" font-family="Times,serif" font-size="14.00">ListPatientsConcreteRepository</text>
</g>
<!-- ListPatientsConcreteRepository&#45;&gt;PatientModule -->
<g id="edge8" class="edge">
<title>ListPatientsConcreteRepository&#45;&gt;PatientModule</title>
<path fill="none" stroke="black" d="M710,-122.27C710,-140.56 710,-166 710,-166 710,-166 1274.78,-166 1274.78,-166"/>
<polygon fill="black" stroke="black" points="1274.78,-169.5 1284.78,-166 1274.78,-162.5 1274.78,-169.5"/>
</g>
<!-- UpdateAndDeleteConcreteRepository -->
<g id="node10" class="node">
<title>UpdateAndDeleteConcreteRepository</title>
<ellipse fill="#fdb462" stroke="black" cx="400" cy="-104" rx="157.97" ry="18"/>
<text text-anchor="middle" x="400" y="-99.8" font-family="Times,serif" font-size="14.00">UpdateAndDeleteConcreteRepository</text>
</g>
<!-- UpdateAndDeleteConcreteRepository&#45;&gt;PatientModule -->
<g id="edge9" class="edge">
<title>UpdateAndDeleteConcreteRepository&#45;&gt;PatientModule</title>
<path fill="none" stroke="black" d="M400,-122.13C400,-142.57 400,-173 400,-173 400,-173 1274.77,-173 1274.77,-173"/>
<polygon fill="black" stroke="black" points="1274.77,-176.5 1284.77,-173 1274.77,-169.5 1274.77,-176.5"/>
</g>
<!-- UpdatePatientUseCase -->
<g id="node11" class="node">
<title>UpdatePatientUseCase</title>
<ellipse fill="#fdb462" stroke="black" cx="124" cy="-104" rx="99.55" ry="18"/>
<text text-anchor="middle" x="124" y="-99.8" font-family="Times,serif" font-size="14.00">UpdatePatientUseCase</text>
</g>
<!-- UpdatePatientUseCase&#45;&gt;PatientModule -->
<g id="edge10" class="edge">
<title>UpdatePatientUseCase&#45;&gt;PatientModule</title>
<path fill="none" stroke="black" d="M124,-122.01C124,-144.49 124,-180 124,-180 124,-180 1274.69,-180 1274.69,-180"/>
<polygon fill="black" stroke="black" points="1274.69,-183.5 1284.69,-180 1274.69,-176.5 1274.69,-183.5"/>
</g>
</g>
</svg>
