<?xml version="1.0" encoding="UTF-8" standalone="no"?>
<!DOCTYPE svg PUBLIC "-//W3C//DTD SVG 1.1//EN"
 "http://www.w3.org/Graphics/SVG/1.1/DTD/svg11.dtd">
<!-- Generated by graphviz version 2.47.0 (20210316.0004)
 -->
<!-- Title: dependencies Pages: 1 -->
<svg width="504pt" height="211pt"
 viewBox="0.00 0.00 504.00 211.00" xmlns="http://www.w3.org/2000/svg" xmlns:xlink="http://www.w3.org/1999/xlink">
<g id="graph0" class="graph" transform="scale(1 1) rotate(0) translate(4 207)">
<title>dependencies</title>
<polygon fill="white" stroke="transparent" points="-4,4 -4,-207 500,-207 500,4 -4,4"/>
<text text-anchor="start" x="227.01" y="-42.4" font-family="Times-12" font-weight="bold" font-size="14.00">Legend</text>
<polygon fill="#ffffb3" stroke="transparent" points="14,-10 14,-30 34,-30 34,-10 14,-10"/>
<text text-anchor="start" x="37.63" y="-15.4" font-family="Times-12" font-size="14.00"> &#160;Declarations</text>
<polygon fill="#8dd3c7" stroke="transparent" points="127,-10 127,-30 147,-30 147,-10 127,-10"/>
<text text-anchor="start" x="150.73" y="-15.4" font-family="Times-12" font-size="14.00"> &#160;Module</text>
<polygon fill="#80b1d3" stroke="transparent" points="213,-10 213,-30 233,-30 233,-10 213,-10"/>
<text text-anchor="start" x="236.78" y="-15.4" font-family="Times-12" font-size="14.00"> &#160;Bootstrap</text>
<polygon fill="#fdb462" stroke="transparent" points="310,-10 310,-30 330,-30 330,-10 310,-10"/>
<text text-anchor="start" x="333.67" y="-15.4" font-family="Times-12" font-size="14.00"> &#160;Providers</text>
<polygon fill="#fb8072" stroke="transparent" points="406,-10 406,-30 426,-30 426,-10 406,-10"/>
<text text-anchor="start" x="429.73" y="-15.4" font-family="Times-12" font-size="14.00"> &#160;Exports</text>
<g id="clust1" class="cluster">
<title>cluster_HttpModule</title>
<polygon fill="none" stroke="black" stroke-dasharray="1,5" points="66.5,-70 66.5,-195 429.5,-195 429.5,-70 66.5,-70"/>
</g>
<g id="clust3" class="cluster">
<title>cluster_HttpModule_imports</title>
<polygon fill="none" stroke="black" points="74.5,-78 74.5,-130 421.5,-130 421.5,-78 74.5,-78"/>
</g>
<!-- DatabaseModule -->
<g id="node1" class="node">
<title>DatabaseModule</title>
<polygon fill="#8dd3c7" stroke="black" points="413.85,-122 410.85,-126 389.85,-126 386.85,-122 303.15,-122 303.15,-86 413.85,-86 413.85,-122"/>
<text text-anchor="middle" x="358.5" y="-99.8" font-family="Times,serif" font-size="14.00">DatabaseModule</text>
</g>
<!-- HttpModule -->
<g id="node4" class="node">
<title>HttpModule</title>
<polygon fill="#8dd3c7" stroke="black" points="277.94,-187 274.94,-191 253.94,-191 250.94,-187 193.06,-187 193.06,-151 277.94,-151 277.94,-187"/>
<text text-anchor="middle" x="235.5" y="-164.8" font-family="Times,serif" font-size="14.00">HttpModule</text>
</g>
<!-- DatabaseModule&#45;&gt;HttpModule -->
<g id="edge1" class="edge">
<title>DatabaseModule&#45;&gt;HttpModule</title>
<path fill="none" stroke="black" d="M358.5,-122.11C358.5,-141.34 358.5,-169 358.5,-169 358.5,-169 287.83,-169 287.83,-169"/>
<polygon fill="black" stroke="black" points="287.83,-165.5 277.83,-169 287.83,-172.5 287.83,-165.5"/>
</g>
<!-- PatientModule -->
<g id="node2" class="node">
<title>PatientModule</title>
<polygon fill="#8dd3c7" stroke="black" points="284.93,-122 281.93,-126 260.93,-126 257.93,-122 186.07,-122 186.07,-86 284.93,-86 284.93,-122"/>
<text text-anchor="middle" x="235.5" y="-99.8" font-family="Times,serif" font-size="14.00">PatientModule</text>
</g>
<!-- PatientModule&#45;&gt;HttpModule -->
<g id="edge2" class="edge">
<title>PatientModule&#45;&gt;HttpModule</title>
<path fill="none" stroke="black" d="M235.5,-122.11C235.5,-122.11 235.5,-140.99 235.5,-140.99"/>
<polygon fill="black" stroke="black" points="232,-140.99 235.5,-150.99 239,-140.99 232,-140.99"/>
</g>
<!-- UserModule -->
<g id="node3" class="node">
<title>UserModule</title>
<polygon fill="#8dd3c7" stroke="black" points="168.48,-122 165.48,-126 144.48,-126 141.48,-122 82.52,-122 82.52,-86 168.48,-86 168.48,-122"/>
<text text-anchor="middle" x="125.5" y="-99.8" font-family="Times,serif" font-size="14.00">UserModule</text>
</g>
<!-- UserModule&#45;&gt;HttpModule -->
<g id="edge3" class="edge">
<title>UserModule&#45;&gt;HttpModule</title>
<path fill="none" stroke="black" d="M125.5,-122.11C125.5,-141.34 125.5,-169 125.5,-169 125.5,-169 182.97,-169 182.97,-169"/>
<polygon fill="black" stroke="black" points="182.97,-172.5 192.97,-169 182.97,-165.5 182.97,-172.5"/>
</g>
</g>
</svg>
