<?xml version="1.0" encoding="UTF-8" standalone="no"?>
<!DOCTYPE svg PUBLIC "-//W3C//DTD SVG 1.1//EN"
 "http://www.w3.org/Graphics/SVG/1.1/DTD/svg11.dtd">
<!-- Generated by graphviz version 2.47.0 (20210316.0004)
 -->
<!-- Title: dependencies Pages: 1 -->
<svg width="4100pt" height="431pt"
 viewBox="0.00 0.00 4100.00 431.00" xmlns="http://www.w3.org/2000/svg" xmlns:xlink="http://www.w3.org/1999/xlink">
<g id="graph0" class="graph" transform="scale(1 1) rotate(0) translate(4 427)">
<title>dependencies</title>
<polygon fill="white" stroke="transparent" points="-4,4 -4,-427 4096,-427 4096,4 -4,4"/>
<text text-anchor="start" x="2025.01" y="-42.4" font-family="Times-12" font-weight="bold" font-size="14.00">Legend</text>
<polygon fill="#ffffb3" stroke="transparent" points="1812,-10 1812,-30 1832,-30 1832,-10 1812,-10"/>
<text text-anchor="start" x="1835.63" y="-15.4" font-family="Times-12" font-size="14.00"> &#160;Declarations</text>
<polygon fill="#8dd3c7" stroke="transparent" points="1925,-10 1925,-30 1945,-30 1945,-10 1925,-10"/>
<text text-anchor="start" x="1948.73" y="-15.4" font-family="Times-12" font-size="14.00"> &#160;Module</text>
<polygon fill="#80b1d3" stroke="transparent" points="2011,-10 2011,-30 2031,-30 2031,-10 2011,-10"/>
<text text-anchor="start" x="2034.78" y="-15.4" font-family="Times-12" font-size="14.00"> &#160;Bootstrap</text>
<polygon fill="#fdb462" stroke="transparent" points="2108,-10 2108,-30 2128,-30 2128,-10 2108,-10"/>
<text text-anchor="start" x="2131.67" y="-15.4" font-family="Times-12" font-size="14.00"> &#160;Providers</text>
<polygon fill="#fb8072" stroke="transparent" points="2204,-10 2204,-30 2224,-30 2224,-10 2204,-10"/>
<text text-anchor="start" x="2227.73" y="-15.4" font-family="Times-12" font-size="14.00"> &#160;Exports</text>
<g id="clust1" class="cluster">
<title>cluster_AppModule</title>
<polygon fill="none" stroke="black" stroke-dasharray="1,5" points="2283,-290 2283,-415 2505,-415 2505,-290 2283,-290"/>
</g>
<g id="clust3" class="cluster">
<title>cluster_AppModule_imports</title>
<polygon fill="none" stroke="black" points="2291,-298 2291,-350 2497,-350 2497,-298 2291,-298"/>
</g>
<g id="clust13" class="cluster">
<title>cluster_DatabaseModule</title>
<polygon fill="none" stroke="black" stroke-dasharray="1,5" points="3918,-70 3918,-282 4084,-282 4084,-70 3918,-70"/>
</g>
<g id="clust16" class="cluster">
<title>cluster_DatabaseModule_exports</title>
<polygon fill="none" stroke="black" points="3926,-222 3926,-274 4042,-274 4042,-222 3926,-222"/>
</g>
<g id="clust18" class="cluster">
<title>cluster_DatabaseModule_providers</title>
<polygon fill="none" stroke="black" points="3926,-78 3926,-130 4076,-130 4076,-78 3926,-78"/>
</g>
<g id="clust19" class="cluster">
<title>cluster_HttpModule</title>
<polygon fill="none" stroke="black" stroke-dasharray="1,5" points="2166,-214 2166,-282 2400,-282 2400,-214 2166,-214"/>
</g>
<g id="clust21" class="cluster">
<title>cluster_HttpModule_imports</title>
<polygon fill="none" stroke="black" points="2174,-222 2174,-274 2392,-274 2392,-222 2174,-222"/>
</g>
<g id="clust25" class="cluster">
<title>cluster_PatientModule</title>
<polygon fill="none" stroke="black" stroke-dasharray="1,5" points="8,-138 8,-206 2295,-206 2295,-138 8,-138"/>
</g>
<g id="clust30" class="cluster">
<title>cluster_PatientModule_providers</title>
<polygon fill="none" stroke="black" points="16,-146 16,-198 2287,-198 2287,-146 16,-146"/>
</g>
<g id="clust31" class="cluster">
<title>cluster_UserModule</title>
<polygon fill="none" stroke="black" stroke-dasharray="1,5" points="2303,-138 2303,-206 3910,-206 3910,-138 2303,-138"/>
</g>
<g id="clust36" class="cluster">
<title>cluster_UserModule_providers</title>
<polygon fill="none" stroke="black" points="2311,-146 2311,-198 3902,-198 3902,-146 2311,-146"/>
</g>
<!-- AuthModule -->
<g id="node1" class="node">
<title>AuthModule</title>
<polygon fill="#8dd3c7" stroke="black" points="2488.55,-342 2485.55,-346 2464.55,-346 2461.55,-342 2401.45,-342 2401.45,-306 2488.55,-306 2488.55,-342"/>
<text text-anchor="middle" x="2445" y="-319.8" font-family="Times,serif" font-size="14.00">AuthModule</text>
</g>
<!-- AppModule -->
<g id="node3" class="node">
<title>AppModule</title>
<polygon fill="#8dd3c7" stroke="black" points="2434.66,-407 2431.66,-411 2410.66,-411 2407.66,-407 2351.34,-407 2351.34,-371 2434.66,-371 2434.66,-407"/>
<text text-anchor="middle" x="2393" y="-384.8" font-family="Times,serif" font-size="14.00">AppModule</text>
</g>
<!-- AuthModule&#45;&gt;AppModule -->
<g id="edge1" class="edge">
<title>AuthModule&#45;&gt;AppModule</title>
<path fill="none" stroke="black" d="M2418.03,-342.11C2418.03,-342.11 2418.03,-360.99 2418.03,-360.99"/>
<polygon fill="black" stroke="black" points="2414.53,-360.99 2418.03,-370.99 2421.53,-360.99 2414.53,-360.99"/>
</g>
<!-- HttpModule -->
<g id="node2" class="node">
<title>HttpModule</title>
<polygon fill="#8dd3c7" stroke="black" points="2383.44,-342 2380.44,-346 2359.44,-346 2356.44,-342 2298.56,-342 2298.56,-306 2383.44,-306 2383.44,-342"/>
<text text-anchor="middle" x="2341" y="-319.8" font-family="Times,serif" font-size="14.00">HttpModule</text>
</g>
<!-- HttpModule&#45;&gt;AppModule -->
<g id="edge2" class="edge">
<title>HttpModule&#45;&gt;AppModule</title>
<path fill="none" stroke="black" d="M2367.2,-342.11C2367.2,-342.11 2367.2,-360.99 2367.2,-360.99"/>
<polygon fill="black" stroke="black" points="2363.7,-360.99 2367.2,-370.99 2370.7,-360.99 2363.7,-360.99"/>
</g>
<!-- PrismaService  -->
<g id="node4" class="node">
<title>PrismaService </title>
<polygon fill="#fb8072" stroke="black" points="4034.36,-266 3933.64,-266 3933.64,-230 4034.36,-230 4034.36,-266"/>
<text text-anchor="middle" x="3984" y="-243.8" font-family="Times,serif" font-size="14.00">PrismaService </text>
</g>
<!-- DatabaseModule -->
<g id="node5" class="node">
<title>DatabaseModule</title>
<polygon fill="#8dd3c7" stroke="black" points="4039.35,-190 4036.35,-194 4015.35,-194 4012.35,-190 3928.65,-190 3928.65,-154 4039.35,-154 4039.35,-190"/>
<text text-anchor="middle" x="3984" y="-167.8" font-family="Times,serif" font-size="14.00">DatabaseModule</text>
</g>
<!-- DatabaseModule&#45;&gt;HttpModule -->
<g id="edge5" class="edge">
<title>DatabaseModule&#45;&gt;HttpModule</title>
<path fill="none" stroke="black" d="M3928.48,-178C3921.71,-178 3917.13,-178 3917.13,-178 3917.13,-178 3917.13,-286 3917.13,-286 3917.13,-286 2355.07,-286 2355.07,-286 2355.07,-286 2355.07,-295.89 2355.07,-295.89"/>
<polygon fill="black" stroke="black" points="2351.57,-295.89 2355.07,-305.89 2358.57,-295.89 2351.57,-295.89"/>
</g>
<!-- DatabaseModule&#45;&gt;PrismaService  -->
<g id="edge3" class="edge">
<title>DatabaseModule&#45;&gt;PrismaService </title>
<path fill="none" stroke="black" stroke-dasharray="5,2" d="M4000.73,-190.01C4000.73,-190.01 4000.73,-219.85 4000.73,-219.85"/>
<polygon fill="black" stroke="black" points="3997.23,-219.85 4000.73,-229.85 4004.23,-219.85 3997.23,-219.85"/>
</g>
<!-- PatientModule -->
<g id="node7" class="node">
<title>PatientModule</title>
<polygon fill="#8dd3c7" stroke="black" points="2280.43,-266 2277.43,-270 2256.43,-270 2253.43,-266 2181.57,-266 2181.57,-230 2280.43,-230 2280.43,-266"/>
<text text-anchor="middle" x="2231" y="-243.8" font-family="Times,serif" font-size="14.00">PatientModule</text>
</g>
<!-- DatabaseModule&#45;&gt;PatientModule -->
<g id="edge8" class="edge">
<title>DatabaseModule&#45;&gt;PatientModule</title>
<path fill="none" stroke="black" d="M3967.27,-190.11C3967.27,-199.9 3967.27,-210 3967.27,-210 3967.27,-210 2246.58,-210 2246.58,-210 2246.58,-210 2246.58,-219.89 2246.58,-219.89"/>
<polygon fill="black" stroke="black" points="2243.08,-219.89 2246.58,-229.89 2250.08,-219.89 2243.08,-219.89"/>
</g>
<!-- UserModule -->
<g id="node8" class="node">
<title>UserModule</title>
<polygon fill="#8dd3c7" stroke="black" points="2383.98,-266 2380.98,-270 2359.98,-270 2356.98,-266 2298.02,-266 2298.02,-230 2383.98,-230 2383.98,-266"/>
<text text-anchor="middle" x="2341" y="-243.8" font-family="Times,serif" font-size="14.00">UserModule</text>
</g>
<!-- DatabaseModule&#45;&gt;UserModule -->
<g id="edge18" class="edge">
<title>DatabaseModule&#45;&gt;UserModule</title>
<path fill="none" stroke="black" d="M3928.34,-166C3915.58,-166 3905.69,-166 3905.69,-166 3905.69,-166 3905.69,-262 3905.69,-262 3905.69,-262 2394.07,-262 2394.07,-262"/>
<polygon fill="black" stroke="black" points="2394.07,-258.5 2384.07,-262 2394.07,-265.5 2394.07,-258.5"/>
</g>
<!-- PrismaService -->
<g id="node6" class="node">
<title>PrismaService</title>
<ellipse fill="#fdb462" stroke="black" cx="4001" cy="-104" rx="66.63" ry="18"/>
<text text-anchor="middle" x="4001" y="-99.8" font-family="Times,serif" font-size="14.00">PrismaService</text>
</g>
<!-- PrismaService&#45;&gt;DatabaseModule -->
<g id="edge4" class="edge">
<title>PrismaService&#45;&gt;DatabaseModule</title>
<path fill="none" stroke="black" d="M3986.81,-121.87C3986.81,-121.87 3986.81,-143.54 3986.81,-143.54"/>
<polygon fill="black" stroke="black" points="3983.31,-143.54 3986.81,-153.54 3990.31,-143.54 3983.31,-143.54"/>
</g>
<!-- PatientModule&#45;&gt;HttpModule -->
<g id="edge6" class="edge">
<title>PatientModule&#45;&gt;HttpModule</title>
<path fill="none" stroke="black" d="M2231,-266.01C2231,-288.49 2231,-324 2231,-324 2231,-324 2288.47,-324 2288.47,-324"/>
<polygon fill="black" stroke="black" points="2288.47,-327.5 2298.47,-324 2288.47,-320.5 2288.47,-327.5"/>
</g>
<!-- UserModule&#45;&gt;HttpModule -->
<g id="edge7" class="edge">
<title>UserModule&#45;&gt;HttpModule</title>
<path fill="none" stroke="black" d="M2326.93,-266.01C2326.93,-266.01 2326.93,-295.85 2326.93,-295.85"/>
<polygon fill="black" stroke="black" points="2323.43,-295.85 2326.93,-305.85 2330.43,-295.85 2323.43,-295.85"/>
</g>
<!-- CreatePatientConcreteRepository -->
<g id="node9" class="node">
<title>CreatePatientConcreteRepository</title>
<ellipse fill="#fdb462" stroke="black" cx="812" cy="-172" rx="140.08" ry="18"/>
<text text-anchor="middle" x="812" y="-167.8" font-family="Times,serif" font-size="14.00">CreatePatientConcreteRepository</text>
</g>
<!-- CreatePatientConcreteRepository&#45;&gt;PatientModule -->
<g id="edge9" class="edge">
<title>CreatePatientConcreteRepository&#45;&gt;PatientModule</title>
<path fill="none" stroke="black" d="M812,-190.09C812,-213.13 812,-250 812,-250 812,-250 2171.74,-250 2171.74,-250"/>
<polygon fill="black" stroke="black" points="2171.74,-253.5 2181.74,-250 2171.74,-246.5 2171.74,-253.5"/>
</g>
<!-- CreatePatientUseCase -->
<g id="node10" class="node">
<title>CreatePatientUseCase</title>
<ellipse fill="#fdb462" stroke="black" cx="557" cy="-172" rx="96.68" ry="18"/>
<text text-anchor="middle" x="557" y="-167.8" font-family="Times,serif" font-size="14.00">CreatePatientUseCase</text>
</g>
<!-- CreatePatientUseCase&#45;&gt;PatientModule -->
<g id="edge10" class="edge">
<title>CreatePatientUseCase&#45;&gt;PatientModule</title>
<path fill="none" stroke="black" d="M557,-190.2C557,-214.36 557,-254 557,-254 557,-254 2171.35,-254 2171.35,-254"/>
<polygon fill="black" stroke="black" points="2171.35,-257.5 2181.35,-254 2171.35,-250.5 2171.35,-257.5"/>
</g>
<!-- DeletePatientUseCase -->
<g id="node11" class="node">
<title>DeletePatientUseCase</title>
<ellipse fill="#fdb462" stroke="black" cx="345" cy="-172" rx="96.68" ry="18"/>
<text text-anchor="middle" x="345" y="-167.8" font-family="Times,serif" font-size="14.00">DeletePatientUseCase</text>
</g>
<!-- DeletePatientUseCase&#45;&gt;PatientModule -->
<g id="edge11" class="edge">
<title>DeletePatientUseCase&#45;&gt;PatientModule</title>
<path fill="none" stroke="black" d="M345,-190.24C345,-215.48 345,-258 345,-258 345,-258 2171.52,-258 2171.52,-258"/>
<polygon fill="black" stroke="black" points="2171.52,-261.5 2181.52,-258 2171.52,-254.5 2171.52,-261.5"/>
</g>
<!-- ListAllPatientsUseCase -->
<g id="node12" class="node">
<title>ListAllPatientsUseCase</title>
<ellipse fill="#fdb462" stroke="black" cx="127" cy="-172" rx="102.51" ry="18"/>
<text text-anchor="middle" x="127" y="-167.8" font-family="Times,serif" font-size="14.00">ListAllPatientsUseCase</text>
</g>
<!-- ListAllPatientsUseCase&#45;&gt;PatientModule -->
<g id="edge12" class="edge">
<title>ListAllPatientsUseCase&#45;&gt;PatientModule</title>
<path fill="none" stroke="black" d="M127,-190.21C127,-216.51 127,-262 127,-262 127,-262 2171.58,-262 2171.58,-262"/>
<polygon fill="black" stroke="black" points="2171.58,-265.5 2181.58,-262 2171.58,-258.5 2171.58,-265.5"/>
</g>
<!-- ListPatientByEmailUseCase -->
<g id="node13" class="node">
<title>ListPatientByEmailUseCase</title>
<ellipse fill="#fdb462" stroke="black" cx="1824" cy="-172" rx="120.99" ry="18"/>
<text text-anchor="middle" x="1824" y="-167.8" font-family="Times,serif" font-size="14.00">ListPatientByEmailUseCase</text>
</g>
<!-- ListPatientByEmailUseCase&#45;&gt;PatientModule -->
<g id="edge13" class="edge">
<title>ListPatientByEmailUseCase&#45;&gt;PatientModule</title>
<path fill="none" stroke="black" d="M1824,-190.27C1824,-208.56 1824,-234 1824,-234 1824,-234 2171.5,-234 2171.5,-234"/>
<polygon fill="black" stroke="black" points="2171.5,-237.5 2181.5,-234 2171.5,-230.5 2171.5,-237.5"/>
</g>
<!-- ListPatientByIdUseCase -->
<g id="node14" class="node">
<title>ListPatientByIdUseCase</title>
<ellipse fill="#fdb462" stroke="black" cx="1579" cy="-172" rx="105.95" ry="18"/>
<text text-anchor="middle" x="1579" y="-167.8" font-family="Times,serif" font-size="14.00">ListPatientByIdUseCase</text>
</g>
<!-- ListPatientByIdUseCase&#45;&gt;PatientModule -->
<g id="edge14" class="edge">
<title>ListPatientByIdUseCase&#45;&gt;PatientModule</title>
<path fill="none" stroke="black" d="M1579,-190.03C1579,-209.58 1579,-238 1579,-238 1579,-238 2171.73,-238 2171.73,-238"/>
<polygon fill="black" stroke="black" points="2171.73,-241.5 2181.73,-238 2171.73,-234.5 2171.73,-241.5"/>
</g>
<!-- ListPatientsConcreteRepository -->
<g id="node15" class="node">
<title>ListPatientsConcreteRepository</title>
<ellipse fill="#fdb462" stroke="black" cx="1321" cy="-172" rx="133.74" ry="18"/>
<text text-anchor="middle" x="1321" y="-167.8" font-family="Times,serif" font-size="14.00">ListPatientsConcreteRepository</text>
</g>
<!-- ListPatientsConcreteRepository&#45;&gt;PatientModule -->
<g id="edge15" class="edge">
<title>ListPatientsConcreteRepository&#45;&gt;PatientModule</title>
<path fill="none" stroke="black" d="M1321,-190.03C1321,-210.77 1321,-242 1321,-242 1321,-242 2171.75,-242 2171.75,-242"/>
<polygon fill="black" stroke="black" points="2171.75,-245.5 2181.75,-242 2171.75,-238.5 2171.75,-245.5"/>
</g>
<!-- UpdateAndDeleteConcreteRepository -->
<g id="node16" class="node">
<title>UpdateAndDeleteConcreteRepository</title>
<ellipse fill="#fdb462" stroke="black" cx="2121" cy="-172" rx="157.97" ry="18"/>
<text text-anchor="middle" x="2121" y="-167.8" font-family="Times,serif" font-size="14.00">UpdateAndDeleteConcreteRepository</text>
</g>
<!-- UpdateAndDeleteConcreteRepository&#45;&gt;PatientModule -->
<g id="edge16" class="edge">
<title>UpdateAndDeleteConcreteRepository&#45;&gt;PatientModule</title>
<path fill="none" stroke="black" d="M2214.18,-186.65C2214.18,-186.65 2214.18,-219.9 2214.18,-219.9"/>
<polygon fill="black" stroke="black" points="2210.68,-219.9 2214.18,-229.9 2217.68,-219.9 2210.68,-219.9"/>
</g>
<!-- UpdateAndDeleteConcreteRepository&#45;&gt;UserModule -->
<g id="edge26" class="edge">
<title>UpdateAndDeleteConcreteRepository&#45;&gt;UserModule</title>
<path fill="none" stroke="black" d="M2279.34,-172C2296.93,-172 2308.66,-172 2308.66,-172 2308.66,-172 2308.66,-219.99 2308.66,-219.99"/>
<polygon fill="black" stroke="black" points="2305.16,-219.99 2308.66,-229.99 2312.16,-219.99 2305.16,-219.99"/>
</g>
<!-- UpdatePatientUseCase -->
<g id="node17" class="node">
<title>UpdatePatientUseCase</title>
<ellipse fill="#fdb462" stroke="black" cx="1070" cy="-172" rx="99.55" ry="18"/>
<text text-anchor="middle" x="1070" y="-167.8" font-family="Times,serif" font-size="14.00">UpdatePatientUseCase</text>
</g>
<!-- UpdatePatientUseCase&#45;&gt;PatientModule -->
<g id="edge17" class="edge">
<title>UpdatePatientUseCase&#45;&gt;PatientModule</title>
<path fill="none" stroke="black" d="M1070,-190.29C1070,-212.21 1070,-246 1070,-246 1070,-246 2171.48,-246 2171.48,-246"/>
<polygon fill="black" stroke="black" points="2171.48,-249.5 2181.48,-246 2171.48,-242.5 2171.48,-249.5"/>
</g>
<!-- CreateUserConcreteRepository -->
<g id="node18" class="node">
<title>CreateUserConcreteRepository</title>
<ellipse fill="#fdb462" stroke="black" cx="2451" cy="-172" rx="131.9" ry="18"/>
<text text-anchor="middle" x="2451" y="-167.8" font-family="Times,serif" font-size="14.00">CreateUserConcreteRepository</text>
</g>
<!-- CreateUserConcreteRepository&#45;&gt;UserModule -->
<g id="edge19" class="edge">
<title>CreateUserConcreteRepository&#45;&gt;UserModule</title>
<path fill="none" stroke="black" d="M2351.65,-183.88C2351.65,-183.88 2351.65,-219.99 2351.65,-219.99"/>
<polygon fill="black" stroke="black" points="2348.15,-219.99 2351.65,-229.99 2355.15,-219.99 2348.15,-219.99"/>
</g>
<!-- CreateUserUseCase -->
<g id="node19" class="node">
<title>CreateUserUseCase</title>
<ellipse fill="#fdb462" stroke="black" cx="3806" cy="-172" rx="88.49" ry="18"/>
<text text-anchor="middle" x="3806" y="-167.8" font-family="Times,serif" font-size="14.00">CreateUserUseCase</text>
</g>
<!-- CreateUserUseCase&#45;&gt;UserModule -->
<g id="edge20" class="edge">
<title>CreateUserUseCase&#45;&gt;UserModule</title>
<path fill="none" stroke="black" d="M3806,-190.03C3806,-214.98 3806,-257 3806,-257 3806,-257 2394.05,-257 2394.05,-257"/>
<polygon fill="black" stroke="black" points="2394.05,-253.5 2384.05,-257 2394.05,-260.5 2394.05,-253.5"/>
</g>
<!-- DeleteUserUseCase -->
<g id="node20" class="node">
<title>DeleteUserUseCase</title>
<ellipse fill="#fdb462" stroke="black" cx="3612" cy="-172" rx="88.49" ry="18"/>
<text text-anchor="middle" x="3612" y="-167.8" font-family="Times,serif" font-size="14.00">DeleteUserUseCase</text>
</g>
<!-- DeleteUserUseCase&#45;&gt;UserModule -->
<g id="edge21" class="edge">
<title>DeleteUserUseCase&#45;&gt;UserModule</title>
<path fill="none" stroke="black" d="M3612,-190.38C3612,-214.28 3612,-253 3612,-253 3612,-253 2394.02,-253 2394.02,-253"/>
<polygon fill="black" stroke="black" points="2394.02,-249.5 2384.02,-253 2394.02,-256.5 2394.02,-249.5"/>
</g>
<!-- ListAllUsersUseCase -->
<g id="node21" class="node">
<title>ListAllUsersUseCase</title>
<ellipse fill="#fdb462" stroke="black" cx="3412" cy="-172" rx="94.33" ry="18"/>
<text text-anchor="middle" x="3412" y="-167.8" font-family="Times,serif" font-size="14.00">ListAllUsersUseCase</text>
</g>
<!-- ListAllUsersUseCase&#45;&gt;UserModule -->
<g id="edge22" class="edge">
<title>ListAllUsersUseCase&#45;&gt;UserModule</title>
<path fill="none" stroke="black" d="M3412,-190.01C3412,-212.49 3412,-248 3412,-248 3412,-248 2393.98,-248 2393.98,-248"/>
<polygon fill="black" stroke="black" points="2393.98,-244.5 2383.98,-248 2393.98,-251.5 2393.98,-244.5"/>
</g>
<!-- ListUserByEmailUseCase -->
<g id="node22" class="node">
<title>ListUserByEmailUseCase</title>
<ellipse fill="#fdb462" stroke="black" cx="3187" cy="-172" rx="112.31" ry="18"/>
<text text-anchor="middle" x="3187" y="-167.8" font-family="Times,serif" font-size="14.00">ListUserByEmailUseCase</text>
</g>
<!-- ListUserByEmailUseCase&#45;&gt;UserModule -->
<g id="edge23" class="edge">
<title>ListUserByEmailUseCase&#45;&gt;UserModule</title>
<path fill="none" stroke="black" d="M3187,-190.17C3187,-211.5 3187,-244 3187,-244 3187,-244 2394.12,-244 2394.12,-244"/>
<polygon fill="black" stroke="black" points="2394.12,-240.5 2384.12,-244 2394.12,-247.5 2394.12,-240.5"/>
</g>
<!-- ListUserByIdUseCase -->
<g id="node23" class="node">
<title>ListUserByIdUseCase</title>
<ellipse fill="#fdb462" stroke="black" cx="2959" cy="-172" rx="97.26" ry="18"/>
<text text-anchor="middle" x="2959" y="-167.8" font-family="Times,serif" font-size="14.00">ListUserByIdUseCase</text>
</g>
<!-- ListUserByIdUseCase&#45;&gt;UserModule -->
<g id="edge24" class="edge">
<title>ListUserByIdUseCase&#45;&gt;UserModule</title>
<path fill="none" stroke="black" d="M2959,-190.31C2959,-210.15 2959,-239 2959,-239 2959,-239 2394.46,-239 2394.46,-239"/>
<polygon fill="black" stroke="black" points="2394.46,-235.5 2384.46,-239 2394.46,-242.5 2394.46,-235.5"/>
</g>
<!-- ListUserConcreteRepository -->
<g id="node24" class="node">
<title>ListUserConcreteRepository</title>
<ellipse fill="#fdb462" stroke="black" cx="2722" cy="-172" rx="121.54" ry="18"/>
<text text-anchor="middle" x="2722" y="-167.8" font-family="Times,serif" font-size="14.00">ListUserConcreteRepository</text>
</g>
<!-- ListUserConcreteRepository&#45;&gt;UserModule -->
<g id="edge25" class="edge">
<title>ListUserConcreteRepository&#45;&gt;UserModule</title>
<path fill="none" stroke="black" d="M2722,-190.22C2722,-208.83 2722,-235 2722,-235 2722,-235 2394.33,-235 2394.33,-235"/>
<polygon fill="black" stroke="black" points="2394.33,-231.5 2384.33,-235 2394.33,-238.5 2394.33,-231.5"/>
</g>
</g>
</svg>
