<?xml version="1.0" encoding="UTF-8" standalone="no"?>
<!DOCTYPE svg PUBLIC "-//W3C//DTD SVG 1.1//EN"
 "http://www.w3.org/Graphics/SVG/1.1/DTD/svg11.dtd">
<!-- Generated by graphviz version 2.47.0 (20210316.0004)
 -->
<!-- Title: dependencies Pages: 1 -->
<svg width="504pt" height="431pt"
 viewBox="0.00 0.00 504.00 431.00" xmlns="http://www.w3.org/2000/svg" xmlns:xlink="http://www.w3.org/1999/xlink">
<g id="graph0" class="graph" transform="scale(1 1) rotate(0) translate(4 427)">
<title>dependencies</title>
<polygon fill="white" stroke="transparent" points="-4,4 -4,-427 500,-427 500,4 -4,4"/>
<text text-anchor="start" x="227.01" y="-42.4" font-family="Times-12" font-weight="bold" font-size="14.00">Legend</text>
<polygon fill="#ffffb3" stroke="transparent" points="14,-10 14,-30 34,-30 34,-10 14,-10"/>
<text text-anchor="start" x="37.63" y="-15.4" font-family="Times-12" font-size="14.00"> &#160;Declarations</text>
<polygon fill="#8dd3c7" stroke="transparent" points="127,-10 127,-30 147,-30 147,-10 127,-10"/>
<text text-anchor="start" x="150.73" y="-15.4" font-family="Times-12" font-size="14.00"> &#160;Module</text>
<polygon fill="#80b1d3" stroke="transparent" points="213,-10 213,-30 233,-30 233,-10 213,-10"/>
<text text-anchor="start" x="236.78" y="-15.4" font-family="Times-12" font-size="14.00"> &#160;Bootstrap</text>
<polygon fill="#fdb462" stroke="transparent" points="310,-10 310,-30 330,-30 330,-10 310,-10"/>
<text text-anchor="start" x="333.67" y="-15.4" font-family="Times-12" font-size="14.00"> &#160;Providers</text>
<polygon fill="#fb8072" stroke="transparent" points="406,-10 406,-30 426,-30 426,-10 406,-10"/>
<text text-anchor="start" x="429.73" y="-15.4" font-family="Times-12" font-size="14.00"> &#160;Exports</text>
<g id="clust1" class="cluster">
<title>cluster_AppModule</title>
<polygon fill="none" stroke="black" stroke-dasharray="1,5" points="241,-290 241,-415 357,-415 357,-290 241,-290"/>
</g>
<g id="clust3" class="cluster">
<title>cluster_AppModule_imports</title>
<polygon fill="none" stroke="black" points="249,-298 249,-350 349,-350 349,-298 249,-298"/>
</g>
<g id="clust7" class="cluster">
<title>cluster_DatabaseModule</title>
<polygon fill="none" stroke="black" stroke-dasharray="1,5" points="282,-70 282,-282 448,-282 448,-70 282,-70"/>
</g>
<g id="clust10" class="cluster">
<title>cluster_DatabaseModule_exports</title>
<polygon fill="none" stroke="black" points="290,-222 290,-274 406,-274 406,-222 290,-222"/>
</g>
<g id="clust12" class="cluster">
<title>cluster_DatabaseModule_providers</title>
<polygon fill="none" stroke="black" points="290,-78 290,-130 440,-130 440,-78 290,-78"/>
</g>
<g id="clust13" class="cluster">
<title>cluster_HttpModule</title>
<polygon fill="none" stroke="black" stroke-dasharray="1,5" points="144,-214 144,-282 274,-282 274,-214 144,-214"/>
</g>
<g id="clust15" class="cluster">
<title>cluster_HttpModule_imports</title>
<polygon fill="none" stroke="black" points="152,-222 152,-274 266,-274 266,-222 152,-222"/>
</g>
<g id="clust19" class="cluster">
<title>cluster_PatientModule</title>
<polygon fill="none" stroke="black" stroke-dasharray="1,5" points="48,-138 48,-206 274,-206 274,-138 48,-138"/>
</g>
<g id="clust24" class="cluster">
<title>cluster_PatientModule_providers</title>
<polygon fill="none" stroke="black" points="56,-146 56,-198 266,-198 266,-146 56,-146"/>
</g>
<!-- HttpModule -->
<g id="node1" class="node">
<title>HttpModule</title>
<polygon fill="#8dd3c7" stroke="black" points="341.44,-342 338.44,-346 317.44,-346 314.44,-342 256.56,-342 256.56,-306 341.44,-306 341.44,-342"/>
<text text-anchor="middle" x="299" y="-319.8" font-family="Times,serif" font-size="14.00">HttpModule</text>
</g>
<!-- AppModule -->
<g id="node2" class="node">
<title>AppModule</title>
<polygon fill="#8dd3c7" stroke="black" points="340.66,-407 337.66,-411 316.66,-411 313.66,-407 257.34,-407 257.34,-371 340.66,-371 340.66,-407"/>
<text text-anchor="middle" x="299" y="-384.8" font-family="Times,serif" font-size="14.00">AppModule</text>
</g>
<!-- HttpModule&#45;&gt;AppModule -->
<g id="edge1" class="edge">
<title>HttpModule&#45;&gt;AppModule</title>
<path fill="none" stroke="black" d="M299,-342.11C299,-342.11 299,-360.99 299,-360.99"/>
<polygon fill="black" stroke="black" points="295.5,-360.99 299,-370.99 302.5,-360.99 295.5,-360.99"/>
</g>
<!-- PrismaService  -->
<g id="node3" class="node">
<title>PrismaService </title>
<polygon fill="#fb8072" stroke="black" points="398.36,-266 297.64,-266 297.64,-230 398.36,-230 398.36,-266"/>
<text text-anchor="middle" x="348" y="-243.8" font-family="Times,serif" font-size="14.00">PrismaService </text>
</g>
<!-- DatabaseModule -->
<g id="node4" class="node">
<title>DatabaseModule</title>
<polygon fill="#8dd3c7" stroke="black" points="411.35,-190 408.35,-194 387.35,-194 384.35,-190 300.65,-190 300.65,-154 411.35,-154 411.35,-190"/>
<text text-anchor="middle" x="356" y="-167.8" font-family="Times,serif" font-size="14.00">DatabaseModule</text>
</g>
<!-- DatabaseModule&#45;&gt;HttpModule -->
<g id="edge4" class="edge">
<title>DatabaseModule&#45;&gt;HttpModule</title>
<path fill="none" stroke="black" d="M300.41,-178C293.01,-178 287.92,-178 287.92,-178 287.92,-178 287.92,-295.8 287.92,-295.8"/>
<polygon fill="black" stroke="black" points="284.42,-295.8 287.92,-305.8 291.42,-295.8 284.42,-295.8"/>
</g>
<!-- DatabaseModule&#45;&gt;PrismaService  -->
<g id="edge2" class="edge">
<title>DatabaseModule&#45;&gt;PrismaService </title>
<path fill="none" stroke="black" stroke-dasharray="5,2" d="M349.38,-190.01C349.38,-190.01 349.38,-219.85 349.38,-219.85"/>
<polygon fill="black" stroke="black" points="345.88,-219.85 349.38,-229.85 352.88,-219.85 345.88,-219.85"/>
</g>
<!-- PatientModule -->
<g id="node6" class="node">
<title>PatientModule</title>
<polygon fill="#8dd3c7" stroke="black" points="258.43,-266 255.43,-270 234.43,-270 231.43,-266 159.57,-266 159.57,-230 258.43,-230 258.43,-266"/>
<text text-anchor="middle" x="209" y="-243.8" font-family="Times,serif" font-size="14.00">PatientModule</text>
</g>
<!-- DatabaseModule&#45;&gt;PatientModule -->
<g id="edge6" class="edge">
<title>DatabaseModule&#45;&gt;PatientModule</title>
<path fill="none" stroke="black" d="M300.34,-166C282.9,-166 268.12,-166 268.12,-166 268.12,-166 268.12,-242 268.12,-242 268.12,-242 267.14,-242 267.14,-242"/>
<polygon fill="black" stroke="black" points="268.36,-238.5 258.36,-242 268.36,-245.5 268.36,-238.5"/>
</g>
<!-- PrismaService -->
<g id="node5" class="node">
<title>PrismaService</title>
<ellipse fill="#fdb462" stroke="black" cx="365" cy="-104" rx="66.63" ry="18"/>
<text text-anchor="middle" x="365" y="-99.8" font-family="Times,serif" font-size="14.00">PrismaService</text>
</g>
<!-- PrismaService&#45;&gt;DatabaseModule -->
<g id="edge3" class="edge">
<title>PrismaService&#45;&gt;DatabaseModule</title>
<path fill="none" stroke="black" d="M356,-121.87C356,-121.87 356,-143.54 356,-143.54"/>
<polygon fill="black" stroke="black" points="352.5,-143.54 356,-153.54 359.5,-143.54 352.5,-143.54"/>
</g>
<!-- PatientModule&#45;&gt;HttpModule -->
<g id="edge5" class="edge">
<title>PatientModule&#45;&gt;HttpModule</title>
<path fill="none" stroke="black" d="M258.42,-254C269.49,-254 278.02,-254 278.02,-254 278.02,-254 278.02,-295.97 278.02,-295.97"/>
<polygon fill="black" stroke="black" points="274.52,-295.97 278.02,-305.97 281.52,-295.97 274.52,-295.97"/>
</g>
<!-- CreatePatientUseCase -->
<g id="node7" class="node">
<title>CreatePatientUseCase</title>
<ellipse fill="#fdb462" stroke="black" cx="161" cy="-172" rx="96.68" ry="18"/>
<text text-anchor="middle" x="161" y="-167.8" font-family="Times,serif" font-size="14.00">CreatePatientUseCase</text>
</g>
<!-- CreatePatientUseCase&#45;&gt;PatientModule -->
<g id="edge7" class="edge">
<title>CreatePatientUseCase&#45;&gt;PatientModule</title>
<path fill="none" stroke="black" d="M208.81,-187.75C208.81,-187.75 208.81,-219.87 208.81,-219.87"/>
<polygon fill="black" stroke="black" points="205.31,-219.87 208.81,-229.87 212.31,-219.87 205.31,-219.87"/>
</g>
</g>
</svg>
